<?xml version="1.0" encoding="utf-8"?>
<!-- Generator: Adobe Illustrator 22.0.1, SVG Export Plug-In . SVG Version: 6.00 Build 0)  -->
<svg version="1.1"
	 id="svg815" inkscape:version="0.92.4 (5da689c313, 2019-01-14)" sodipodi:docname="DataViewerIcon.png" xmlns:cc="http://creativecommons.org/ns#" xmlns:dc="http://purl.org/dc/elements/1.1/" xmlns:inkscape="http://www.inkscape.org/namespaces/inkscape" xmlns:rdf="http://www.w3.org/1999/02/22-rdf-syntax-ns#" xmlns:sodipodi="http://sodipodi.sourceforge.net/DTD/sodipodi-0.dtd" xmlns:svg="http://www.w3.org/2000/svg"
	 xmlns="http://www.w3.org/2000/svg" xmlns:xlink="http://www.w3.org/1999/xlink" x="0px" y="0px" viewBox="0 0 18.5 18.5"
	 style="enable-background:new 0 0 18.5 18.5;" xml:space="preserve">
<style type="text/css">
	.st0{fill:#83BFD2;}
	.st1{fill:#FFFFFF;}
</style>
<rect y="0" class="st0" width="18.5" height="18.5"/>
<g>
	<path class="st1" d="M16.9,8.4c-0.1-0.1-0.2-0.1-0.3-0.1s-0.2,0.1-0.3,0.2l-4,5.1c-0.1,0.1-0.1,0.2-0.1,0.3c0,0.1,0.1,0.2,0.2,0.3
		c0.1,0.1,0.2,0.1,0.3,0.1c0.1,0,0.2-0.1,0.3-0.2l4-5.1C17.1,8.8,17,8.6,16.9,8.4z"/>
	<path class="st1" d="M11.5,4.2c-0.9,0-1.7,0.5-2.2,1.2C8.8,4.7,7.9,4.2,7,4.2c-1.5,0-2.6,1.2-2.6,2.6c0,0.2,0.2,0.4,0.4,0.4
		c0.2,0,0.4-0.2,0.4-0.4C5.2,5.8,6,5,7,5s1.8,0.8,1.8,1.8c0,0.2,0.2,0.4,0.4,0.4c0.2,0,0.4-0.2,0.4-0.4c0-1,0.8-1.8,1.8-1.8
		s1.8,0.8,1.8,1.8c0,0.2,0.2,0.4,0.4,0.4s0.4-0.2,0.4-0.4C14.1,5.4,12.9,4.2,11.5,4.2z"/>
	<path class="st1" d="M13.8,8.6c0-0.1-0.1-0.2-0.2-0.3l0,0c-0.2-0.1-0.4-0.1-0.6,0.1l-3.8,4.8L5.5,8.4C5.4,8.3,5.3,8.3,5.2,8.3
		c-0.1,0-0.2,0-0.3,0.1C4.8,8.4,4.8,8.5,4.7,8.6c0,0.1,0,0.2,0.1,0.3l4.1,5.2c0.1,0.1,0.2,0.2,0.3,0.2c0.1,0,0.2-0.1,0.3-0.2
		l4.1-5.2C13.7,8.8,13.8,8.7,13.8,8.6z"/>
	<path class="st1" d="M6.3,13.6L2.2,8.5C2.1,8.3,1.8,8.3,1.6,8.4C1.5,8.6,1.4,8.8,1.6,9l4,5.1c0.1,0.1,0.2,0.2,0.3,0.2
		c0.1,0,0.2,0,0.3-0.1c0.1-0.1,0.1-0.2,0.2-0.3C6.4,13.8,6.3,13.7,6.3,13.6z"/>
</g>
<sodipodi:namedview  bordercolor="#666666" borderopacity="1" gridtolerance="10" guidetolerance="10" id="namedview817" inkscape:current-layer="svg815" inkscape:cx="10.690423" inkscape:cy="7.6971045" inkscape:pageopacity="0" inkscape:pageshadow="2" inkscape:window-height="1027" inkscape:window-maximized="1" inkscape:window-width="1920" inkscape:window-x="-8" inkscape:window-y="22" inkscape:zoom="55.735245" objecttolerance="10" pagecolor="#ffffff" showgrid="false">
	</sodipodi:namedview>
</svg>
