<?xml version="1.0" encoding="utf-8"?>
<!-- Generator: Adobe Illustrator 22.0.1, SVG Export Plug-In . SVG Version: 6.00 Build 0)  -->
<svg version="1.1"
	 id="svg815" inkscape:version="0.92.4 (5da689c313, 2019-01-14)" sodipodi:docname="DataViewerIcon.png" xmlns:cc="http://creativecommons.org/ns#" xmlns:dc="http://purl.org/dc/elements/1.1/" xmlns:inkscape="http://www.inkscape.org/namespaces/inkscape" xmlns:rdf="http://www.w3.org/1999/02/22-rdf-syntax-ns#" xmlns:sodipodi="http://sodipodi.sourceforge.net/DTD/sodipodi-0.dtd" xmlns:svg="http://www.w3.org/2000/svg"
	 xmlns="http://www.w3.org/2000/svg" xmlns:xlink="http://www.w3.org/1999/xlink" x="0px" y="0px" viewBox="0 0 21.4 15.4"
	 style="enable-background:new 0 0 21.4 15.4;" xml:space="preserve">
<style type="text/css">
	.st0{fill:#FFFFFF;}
</style>
<g>
	<path class="st0" d="M20.3,6.7c-0.1-0.1-0.2-0.1-0.4-0.1c-0.1,0-0.3,0.1-0.4,0.2l-5.1,6.4c-0.1,0.1-0.1,0.2-0.1,0.4
		c0,0.1,0.1,0.3,0.2,0.3c0.1,0.1,0.2,0.1,0.3,0.1c0.2,0,0.3-0.1,0.4-0.2l5.1-6.4C20.6,7.2,20.5,6.9,20.3,6.7z"/>
	<path class="st0" d="M13.5,1.4c-1.1,0-2.2,0.6-2.8,1.5c-0.6-1-1.6-1.5-2.8-1.5c-1.8,0-3.3,1.5-3.3,3.3c0,0.3,0.2,0.5,0.5,0.5
		c0.3,0,0.5-0.2,0.5-0.5c0-1.3,1-2.3,2.3-2.3s2.3,1,2.3,2.3c0,0.3,0.2,0.5,0.5,0.5c0.3,0,0.5-0.2,0.5-0.5c0-1.3,1-2.3,2.3-2.3
		s2.3,1,2.3,2.3c0,0.3,0.2,0.5,0.5,0.5s0.5-0.2,0.5-0.5C16.8,2.8,15.3,1.4,13.5,1.4z"/>
	<path class="st0" d="M16.4,6.9c0-0.1-0.1-0.3-0.2-0.3l0,0c-0.2-0.2-0.6-0.1-0.7,0.1l-4.8,6l-4.8-6C5.9,6.5,5.7,6.5,5.6,6.4
		s-0.3,0-0.4,0.1C5.1,6.6,5,6.8,5,6.9C5,7,5,7.2,5.1,7.3l5.2,6.6c0.1,0.1,0.3,0.2,0.4,0.2c0.2,0,0.3-0.1,0.4-0.2l5.2-6.6
		C16.4,7.2,16.4,7,16.4,6.9z"/>
	<path class="st0" d="M6.9,13.2L1.8,6.8C1.7,6.5,1.3,6.5,1.1,6.7C0.9,6.8,0.8,7.2,1,7.4l5.1,6.4C6.2,14,6.4,14,6.5,14
		c0.1,0,0.2,0,0.3-0.1C7,13.8,7,13.7,7.1,13.6C7.1,13.4,7,13.3,6.9,13.2z"/>
</g>
<sodipodi:namedview  bordercolor="#666666" borderopacity="1" gridtolerance="10" guidetolerance="10" id="namedview817" inkscape:current-layer="svg815" inkscape:cx="10.690423" inkscape:cy="7.6971045" inkscape:pageopacity="0" inkscape:pageshadow="2" inkscape:window-height="1027" inkscape:window-maximized="1" inkscape:window-width="1920" inkscape:window-x="-8" inkscape:window-y="22" inkscape:zoom="55.735245" objecttolerance="10" pagecolor="#ffffff" showgrid="false">
	</sodipodi:namedview>
</svg>
